# xmcd
# Track frame offsets:
# 151
# 16814
# 30320
# 46960
# 59414
# 75738
# 86516
# 104100
# 118044
# 131805
# 146682
#
# Disc length: 2202 seconds
# Revision: 0
# Processed by: cddbd v1.4PL0 Copyright (c) Steve Scherf et al.
# Submitted via: VisiTrax 2.9.5.180 - For more info visit www.synapsa.com
#
DISCID=9208980b
DTITLE=Curt Ryle - Life time quarantee
DYEAR=1900
DGENRE=
TTITLE0=Lifetime quarantee
TTITLE1=These boots were made for walkin'
TTITLE2=Mirrors don't lie
TTITLE3=Thunderbird cafe
TTITLE4=Denver
TTITLE5=Rodeo drive
TTITLE6=Mending fences
TTITLE7=Mother of all heartaches
TTITLE8=Shine your light
TTITLE9=Becky Brown's daddy
TTITLE10=Ain't gonna mess this one up
EXTD=
EXTT0=
EXTT1=
EXTT2=
EXTT3=
EXTT4=
EXTT5=
EXTT6=
EXTT7=
EXTT8=
EXTT9=
EXTT10=
PLAYORDER=
